<?xml version="1.0" encoding="UTF-8" standalone="no"?>
<!-- Created with Inkscape (http://www.inkscape.org/) -->

<svg
   xmlns:dc="http://purl.org/dc/elements/1.1/"
   xmlns:cc="http://creativecommons.org/ns#"
   xmlns:rdf="http://www.w3.org/1999/02/22-rdf-syntax-ns#"
   xmlns:svg="http://www.w3.org/2000/svg"
   xmlns="http://www.w3.org/2000/svg"
   xmlns:xlink="http://www.w3.org/1999/xlink"
   xmlns:sodipodi="http://sodipodi.sourceforge.net/DTD/sodipodi-0.dtd"
   xmlns:inkscape="http://www.inkscape.org/namespaces/inkscape"
   width="1048"
   height="1048"
   viewBox="0 0 1048 1048"
   id="svg2"
   version="1.1"
   inkscape:version="0.91 r13725"
   sodipodi:docname="bitcoin_testnet.svg"
   inkscape:export-filename="/home/gjh/minkiz/fabshop/GapCoinWork/gapcoin-corrected/src/qt/res/icons/bitcoin_testnet.png"
   inkscape:export-xdpi="87.938934"
   inkscape:export-ydpi="87.938934">
  <defs
     id="defs4">
    <linearGradient
       inkscape:collect="always"
       id="linearGradient4200">
      <stop
         style="stop-color:#ea5456;stop-opacity:1"
         offset="0"
         id="stop4202" />
      <stop
         style="stop-color:#f3ea3b;stop-opacity:1"
         offset="1"
         id="stop4204" />
    </linearGradient>
    <linearGradient
       inkscape:collect="always"
       xlink:href="#linearGradient4200"
       id="linearGradient4206"
       x1="332.36322"
       y1="400.9848"
       x2="332.71484"
       y2="627.60413"
       gradientUnits="userSpaceOnUse"
       gradientTransform="matrix(4.6082206,0,0,4.6084363,-1004.9665,-1841.3855)" />
  </defs>
  <sodipodi:namedview
     id="base"
     pagecolor="#ffffff"
     bordercolor="#666666"
     borderopacity="1.0"
     inkscape:pageopacity="0.0"
     inkscape:pageshadow="2"
     inkscape:zoom="0.78271028"
     inkscape:cx="377.30977"
     inkscape:cy="593.91402"
     inkscape:document-units="px"
     inkscape:current-layer="layer1"
     showgrid="false"
     fit-margin-top="0"
     fit-margin-left="0"
     fit-margin-right="0"
     fit-margin-bottom="0"
     units="px"
     inkscape:window-width="2424"
     inkscape:window-height="1610"
     inkscape:window-x="1063"
     inkscape:window-y="201"
     inkscape:window-maximized="0" />
  <metadata
     id="metadata7">
    <rdf:RDF>
      <cc:Work
         rdf:about="">
        <dc:format>image/svg+xml</dc:format>
        <dc:type
           rdf:resource="http://purl.org/dc/dcmitype/StillImage" />
        <dc:title></dc:title>
      </cc:Work>
    </rdf:RDF>
  </metadata>
  <g
     inkscape:label="Layer 1"
     inkscape:groupmode="layer"
     id="layer1"
     transform="translate(5.6441542e-8,-4.362027)">
    <path
       style="fill:url(#linearGradient4206);fill-opacity:1"
       d="M 448.93135,1049.4631 C 159.28991,1004.5448 -39.769493,732.91977 6.7459767,446.0809 53.112649,160.1598 317.96806,-32.813481 604.7052,10.408586 c 50.71802,7.645098 113.03483,27.13923 156.30638,48.896309 33.35698,16.771929 89.66005,54.680805 104.1981,70.156505 l 9.9488,10.59053 -10.60748,14.3783 c -12.43567,16.8565 -228.14879,257.75529 -241.4981,269.69446 -8.70085,7.78176 -10.04081,7.70137 -31.69634,-1.90065 -88.55916,-39.26704 -180.96472,42.33008 -153.13463,135.22297 7.08899,23.66179 37.77595,58.14576 61.22142,68.79603 27.64215,12.55667 64.51705,11.2875 93.63397,-3.22275 25.10435,-12.51056 50.1938,-37.56627 43.8986,-43.8399 -2.04369,-2.03635 -17.19482,-4.33158 -33.66921,-5.09875 l -29.95344,-1.39495 0,-29.95534 c 0,-36.0183 -3.41627,-34.74074 80.08271,-29.93647 l 57.04166,3.28248 -2.4066,28.30467 c -3.22366,37.91422 -16.86759,67.40317 -44.90152,97.0462 -73.17105,77.37117 -198.62965,67.48701 -257.22606,-20.26613 -23.58562,-35.32135 -30.05583,-60.44308 -27.6022,-107.17036 1.68966,-32.17751 4.40727,-42.59942 17.52622,-67.21222 17.26374,-32.38891 44.59137,-58.96302 77.41206,-75.27769 19.34911,-9.61816 28.13217,-10.8036 80.04187,-10.8036 l 58.30784,0 19.34208,-21.97026 c 10.63813,-12.08369 18.29976,-24.68669 17.02587,-28.00659 -3.38337,-8.81723 -58.24142,-25.56381 -94.22712,-28.76466 -118.91223,-10.5768 -234.1068,80.5497 -254.80448,201.5673 -15.56059,90.98103 29.15597,190.40945 108.49174,241.23459 106.62879,68.30867 243.95523,43.22048 321.44795,-58.72534 25.88375,-34.05215 39.27085,-66.72613 46.74155,-114.08537 l 5.45228,-34.56257 109.78799,-3.34222 c 60.38335,-1.83828 120.43599,-1.77541 133.45039,0.13624 l 23.6625,3.48162 -0.9565,45.94542 c -2.7989,134.44792 -78.4894,282.58651 -189.95562,371.77444 -66.03129,52.83425 -142.93249,90.05777 -221.52366,107.22587 -41.09244,8.9767 -147.70097,12.891 -186.63291,6.8543 z M 626.39741,992.04361 C 735.85996,969.01587 838.49198,904.18775 904.29485,816.50587 953.0869,751.49119 992.06897,659.17903 995.88038,599.62574 l 1.42921,-22.33078 -28.65933,-1.36875 c -32.07972,-1.5312 -27.96926,-6.32183 -37.94794,44.22662 -19.07061,96.60496 -93.36224,201.68866 -181.15266,256.23435 -75.54345,46.93794 -147.34929,65.41191 -238.26207,61.30145 -84.16467,-3.80546 -144.56262,-23.37254 -212.79885,-68.94171 l -28.50083,-19.03257 -17.65695,20.47783 c -9.71133,11.26128 -17.66256,22.01112 -17.66944,23.88818 -0.0535,14.51862 115.10155,75.84941 170.49171,90.80297 70.857,19.12997 151.88262,21.75237 221.24418,7.16028 z m -120.821,-143.63095 c 1.50305,-36.88293 5.08669,-33.0565 -40.51629,-43.25507 C 368.61273,783.58979 287.7155,708.93935 255.2975,611.59236 l -12.18884,-36.60206 -27.41555,0 c -33.28425,0 -35.00178,2.88422 -25.17443,42.27411 17.4676,70.01281 67.19735,145.96703 126.14948,192.67229 47.37385,37.53168 139.89276,75.64083 176.04126,72.51241 10.98394,-0.95373 11.58326,-2.53628 12.86699,-34.03645 z m 136.72219,20.51663 c 57.46644,-18.74856 98.99703,-44.45826 143.24859,-88.67859 33.66524,-33.64132 45.89237,-49.84521 63.5237,-84.17929 20.98751,-40.87077 42.56087,-108.51185 37.31568,-117.00001 -1.38726,-2.24388 -15.73187,-4.0811 -31.87681,-4.0811 l -29.35447,0 -7.65261,26.49887 C 789.24372,699.34028 705.826,779.97297 606.92173,805.03811 l -33.56846,8.50807 -1.38922,28.85906 c -1.93643,40.22414 -0.37707,42.84845 23.11045,38.88053 10.66827,-1.80368 31.91914,-7.36359 47.2241,-12.35648 z M 204.15943,828.44105 c 9.16575,-10.14512 16.66498,-20.51136 16.66498,-23.03613 0,-2.5237 -9.18708,-16.51619 -20.4157,-31.09351 -51.10171,-66.34256 -80.96516,-156.82063 -80.96516,-245.30112 0,-189.05191 127.05759,-352.32149 310.20997,-398.62158 22.54407,-5.69908 42.81194,-13.24021 45.03963,-16.75819 6.13932,-9.69488 4.97718,-39.179018 -1.76481,-44.774552 -7.37538,-6.121337 -61.08313,4.249105 -102.24184,19.7419 C 213.49559,147.76715 103.60967,276.69175 68.065819,443.65015 c -7.588309,35.64436 -7.588309,139.47616 0,175.12031 9.785786,45.96638 23.832152,85.50193 45.026361,126.73218 19.9688,38.84699 63.57779,101.38512 70.69726,101.38512 2.03775,0 11.20424,-8.30055 20.36999,-18.44671 z m 35.21192,-329.78969 c 2.4718,-6.50169 4.49416,-17.02346 4.49416,-23.38178 0,-6.3583 5.33698,-27.45981 11.85986,-46.89222 30.57296,-91.07956 95.81265,-156.07536 188.64198,-187.93678 31.16399,-10.69629 44.60997,-12.66945 87.51193,-12.84228 54.20362,-0.21905 82.25895,5.76207 133.07672,28.36661 l 27.0876,12.04899 16.29198,-17.77847 16.29194,-17.77837 -13.42614,-10.73066 C 694.97276,208.75595 633.52652,185.91959 596.3752,179.05141 438.37308,149.84186 269.90284,242.21103 207.66343,392.17511 c -14.59161,35.15797 -30.27846,101.91963 -26.35211,112.15153 1.5737,4.10206 10.87479,6.14575 27.96199,6.14575 23.24391,0 26.01811,-1.08996 30.09804,-11.82103 z M 782.54994,166.98355 c 7.86611,-8.95935 14.30205,-18.19885 14.30205,-20.53213 0,-12.9523 -105.8583,-61.874184 -160.27304,-74.069498 -32.38943,-7.258888 -84.23317,-13.143167 -91.43822,-10.378198 -4.30347,1.651408 -6.34911,10.415821 -6.34911,27.202004 0,27.966452 -4.65628,25.077192 54.73216,33.961612 43.98735,6.58038 98.10214,24.59341 132.36248,44.05893 14.95316,8.49591 30.60177,15.58218 34.77465,15.74715 4.17284,0.1656 14.0229,-7.03041 21.88903,-15.98987 z"
       id="path4198"
       inkscape:connector-curvature="0"
       inkscape:export-filename="/home/gjh/minkiz/fabshop/GapCoinWork/gapcoin-corrected/share/pixmaps/bitcoin16.png"
       inkscape:export-xdpi="1.3740458"
       inkscape:export-ydpi="1.3740458" />
  </g>
</svg>
